<svg t="1611141862335" class="icon" viewBox="0 0 1024 1024" version="1.1" xmlns="http://www.w3.org/2000/svg" p-id="17195" width="128" height="128"><path d="M1000.448 900.7104c-33.95128889-186.95964445-170.0864-332.9024-344.55324445-385.70666667C735.26613333 466.37511111 788.48 379.07342222 788.48 279.35857778c0-152.46222222-124.01777778-276.5824-276.57102222-276.5824s-276.5824 124.01777778-276.5824 276.5824 124.01777778 276.5824 276.5824 276.5824c209.98826667 0 389.56373333 149.68604445 427.03075555 355.95377777a39.51502222 39.51502222 0 0 1-8.61297778 32.39253334 40.10666667 40.10666667 0 0 1-30.81102222 14.42702222H124.26808889a38.94613333 38.94613333 0 0 1-30.37866667-14.24497778 41.1648 41.1648 0 0 1-8.77226667-33.90577778c23.89333333-129.44497778 108.08888889-243.48444445 225.08657778-305.01546666a31.24337778 31.24337778 0 1 0-29.10435555-55.30737778c-133.81404445 70.36017778-230.07004445 200.81777778-257.45635556 348.96782222a103.53777778 103.53777778 0 0 0 22.19804445 85.24231112 101.77422222 101.77422222 0 0 0 78.42702222 36.77297777h775.2704a102.4 102.4 0 0 0 100.90951111-120.51342222zM297.84746667 279.35857778c0-118.03306667 96.02844445-214.06151111 214.07288888-214.06151111s214.05013333 96.02844445 214.05013334 214.06151111-96.02844445 214.06151111-214.05013334 214.06151111-214.07288889-96.02844445-214.07288888-214.06151111z" fill="#ffffff" p-id="17196"></path></svg>