<svg t="1611141555549" class="icon" viewBox="0 0 1024 1024" version="1.1" xmlns="http://www.w3.org/2000/svg" p-id="14251" width="128" height="128"><path d="M960 1024h-896C28.65152 1024 0 995.33824 0 960V159.99488C0 124.65664 28.65152 96 64 96H128a31.99488 31.99488 0 1 1 0 63.98976c-35.34848 0-64 28.66688-64 64V896c0 35.33824 28.65152 64.00512 64 64.00512h768c35.34848 0 64-28.66688 64-64.00512V223.99488c0-35.33824-28.65152-64-64-64a31.99488 31.99488 0 1 1 0-63.98976h64c35.34848 0 64 28.65664 64 63.99488V960c0 35.33824-28.65152 64-64 64zM768 223.99488a31.99488 31.99488 0 0 1-32-31.98976V32.00512A32 32 0 0 1 768 0a32 32 0 0 1 32 32.00512v160a31.99488 31.99488 0 0 1-32 31.98976z m-13.66016 209.57696l-291.47648 288.89088c-18.57536 18.4064-48.6912 18.4064-67.26656 0l-156.94848-155.55072a46.848 46.848 0 0 1 0-66.67264c18.57536-18.40128 48.6912-18.40128 67.26144 0l123.3152 122.21952 257.84832-255.55456c18.57536-18.4064 48.6912-18.4064 67.26144 0a46.83776 46.83776 0 0 1 0.00512 66.66752zM640 159.99488H384a31.99488 31.99488 0 1 1 0-63.98976h256a31.99488 31.99488 0 1 1 0 63.98976z m-384 64a31.99488 31.99488 0 0 1-32-31.98976V32.00512A32 32 0 0 1 256 0a32 32 0 0 1 32 32.00512v160A31.99488 31.99488 0 0 1 256 223.99488z" p-id="14252" fill="#ffffff"></path></svg>