<svg t="1611141463667" class="icon" viewBox="0 0 1024 1024" version="1.1" xmlns="http://www.w3.org/2000/svg" p-id="11825" width="128" height="128"><path d="M885.446 256h-176.524v-77.998c0-65.15-53.496-118.926-118.538-118.926h-157.932c-65.044 0-117.376 53.776-117.376 118.926V256H137.39C61.312 256 0 318.614 0 394.624v433.218c0 76.012 61.312 137.08 137.39 137.08h748.058c76.078 0 138.554-61.068 138.554-137.08V394.624C1024 318.614 961.524 256 885.446 256z m-506.302-77.784c0-36.628 29.232-67.078 65.77-67.078h133.188c36.538 0 66.752 30.45 66.752 67.078v79.11H379.144v-79.11z m578.24 637.102c0 51.168-42.226 92.066-93.454 92.066H158.974c-51.228 0-92.358-40.898-92.358-92.066V407.06c0-51.168 41.13-93.522 92.358-93.522H863.932c51.228 0 93.454 42.356 93.454 93.522v408.258z" fill="#ffffff" p-id="11826"></path><path d="M712.366 622.174a10 10 0 0 1-10 10H321.634a10 10 0 0 1-10-10v-45.996a10 10 0 0 1 10-10h380.732a10 10 0 0 1 10 10v45.996z" fill="#ffffff" p-id="11827"></path><path d="M534.998 398.81a10 10 0 0 1 10 10v380.732a10 10 0 0 1-10 10h-45.996a10 10 0 0 1-10-10V408.81a10 10 0 0 1 10-10h45.996z" fill="#ffffff" p-id="11828"></path></svg>