<svg t="1611142009612" class="icon" viewBox="0 0 1024 1024" version="1.1" xmlns="http://www.w3.org/2000/svg" p-id="21368" width="128" height="128"><path d="M509.574438 291.893156H264.437859v71.631489h245.136579zM264.437859 578.625542h490.273158v-72.250781h-490.273158z m0 214.997681h490.273158v-72.250781h-490.273158z m676.576958-558.085676L705.683701 10.32154a36.641468 36.641468 0 0 0-19.30128-10.32154H102.596109A34.370729 34.370729 0 0 0 68.225381 35.815744v952.368512a34.370729 34.370729 0 0 0 34.370728 35.815744h818.807782a34.370729 34.370729 0 0 0 34.370728-35.815744V261.134966c0.309646-13.418002-5.057555-17.236972-14.759802-25.597419zM700.832577 97.332124l176.498337 174.021167h-176.498337z m181.659107 855.036387H136.863623V71.631489h495.433928v235.537546a34.267513 34.267513 0 0 0 34.267513 35.91896h220.571313v608.97087z" fill="#ffffff" p-id="21369"></path></svg>