<svg t="1611141286781" class="icon" viewBox="0 0 1024 1024" version="1.1" xmlns="http://www.w3.org/2000/svg" p-id="8149" width="128" height="128"><path d="M896 24.32H128c-52.8 0-96 34.56-96 76.8v856.32c-4.8 11.52 0 23.04 14.4 30.72 19.2 15.36 43.2 15.36 62.4 0L512 665.6l403.2 322.56c19.2 15.36 43.2 15.36 62.4 0 9.6-7.68 14.4-19.2 14.4-30.72V101.12c0-42.24-43.2-76.8-96-76.8z m0 848.64L545.6 588.8c-9.6-7.68-19.2-11.52-33.6-11.52-9.6 0-24 3.84-33.6 11.52L128 872.96V143.36c0-23.04 19.2-38.4 48-38.4h672c28.8 0 48 15.36 48 38.4v729.6z" fill="#ffffff" p-id="8150"></path></svg>