<svg t="1611141433151" class="icon" viewBox="0 0 1024 1024" version="1.1" xmlns="http://www.w3.org/2000/svg" p-id="10956" width="128" height="128"><path d="M392.192 591.4624c-56.5248 0-109.7728-22.016-149.7088-62.0544-40.0384-40.0384-62.0544-93.184-62.0544-149.7088 0-56.5248 22.016-109.7728 62.0544-149.7088 40.0384-40.0384 93.184-62.0544 149.7088-62.0544 56.5248 0 109.7728 22.016 149.7088 62.0544 40.0384 40.0384 62.0544 93.184 62.0544 149.7088 0 56.5248-22.016 109.7728-62.0544 149.7088-40.0384 40.0384-93.184 62.0544-149.7088 62.0544z m0-356.4544c-79.7696 0-144.6912 64.9216-144.6912 144.6912S312.4224 524.3904 392.192 524.3904s144.6912-64.9216 144.6912-144.6912S471.9616 235.008 392.192 235.008z m0 0" p-id="10957" fill="#ffffff"></path><path d="M657.6128 857.1904c-18.5344 0-33.4848-15.0528-33.4848-33.4848 0-127.8976-104.0384-231.936-231.936-231.936S160.256 695.808 160.256 823.7056c0 18.5344-15.0528 33.4848-33.4848 33.4848S93.184 842.24 93.184 823.7056c0-40.3456 7.8848-79.4624 23.552-116.4288 15.0528-35.6352 36.6592-67.584 64.1024-95.0272 27.4432-27.4432 59.392-48.9472 95.0272-64.1024 36.864-15.5648 76.0832-23.552 116.4288-23.552 40.3456 0 79.4624 7.8848 116.4288 23.552 35.6352 15.0528 67.584 36.6592 95.0272 64.1024 27.4432 27.4432 48.9472 59.392 64.1024 95.0272 15.5648 36.864 23.552 76.0832 23.552 116.4288-0.3072 18.5344-15.2576 33.4848-33.792 33.4848z m0 0M630.272 591.4624c-18.5344 0-33.4848-15.0528-33.4848-33.4848 0-18.5344 15.0528-33.4848 33.4848-33.4848 79.7696 0 144.6912-64.9216 144.6912-144.6912s-64.9216-144.6912-144.6912-144.6912c-18.5344 0-33.4848-15.0528-33.4848-33.4848 0-18.5344 15.0528-33.4848 33.4848-33.4848 56.5248 0 109.7728 22.016 149.7088 62.0544 40.0384 40.0384 62.0544 93.184 62.0544 149.7088 0 56.5248-22.016 109.7728-62.0544 149.7088-40.0384 39.8336-93.184 61.8496-149.7088 61.8496z m0 0" p-id="10958" fill="#ffffff"></path><path d="M895.6928 857.1904c-18.5344 0-33.4848-15.0528-33.4848-33.4848 0-127.8976-104.0384-231.936-231.936-231.936-18.5344 0-33.4848-15.0528-33.4848-33.4848s15.0528-33.4848 33.4848-33.4848c40.3456 0 79.4624 7.8848 116.4288 23.552 35.6352 15.0528 67.584 36.6592 95.0272 64.1024 27.4432 27.4432 49.0496 59.392 64.1024 95.0272 15.5648 36.864 23.552 76.0832 23.552 116.4288-0.2048 18.3296-15.1552 33.28-33.6896 33.28z m0 0" p-id="10959" fill="#ffffff"></path></svg>