<svg t="1611141675623" class="icon" viewBox="0 0 1024 1024" version="1.1" xmlns="http://www.w3.org/2000/svg" p-id="15195" width="128" height="128"><path d="M78.769231 866.461538V708.923077H0v157.538461c0 87.006242 70.53222 157.538462 157.538462 157.538462h157.538461v-78.769231H157.538462a78.769231 78.769231 0 0 1-78.769231-78.769231z m0-708.923076a78.769231 78.769231 0 0 1 78.769231-78.769231h157.538461V0H157.538462C70.53222 0 0 70.53222 0 157.538462v236.307692h78.769231V157.538462z m866.461538 708.923076a78.769231 78.769231 0 0 1-78.769231 78.769231H708.923077v78.769231h157.538461c87.006242 0 157.538462-70.53222 157.538462-157.538462V708.923077h-78.769231v157.538461zM866.461538 0H708.923077v78.769231h157.538461a78.769231 78.769231 0 0 1 78.769231 78.769231v236.307692h78.769231V157.538462c0-87.006242-70.53222-157.538462-157.538462-157.538462z m-78.76923 512a39.384615 39.384615 0 0 0-39.384616-39.384615H551.384615V275.692308a39.384615 39.384615 0 0 0-78.76923 0V472.615385H275.692308a39.384615 39.384615 0 0 0 0 78.76923H472.615385v196.923077a39.384615 39.384615 0 0 0 78.76923 0V551.384615h196.923077a39.384615 39.384615 0 0 0 39.384616-39.384615z" p-id="15196" fill="#ffffff"></path></svg>